# This file uses centimeters as units for non-parametric coordinates.

mtllib Stalactite 1.mtl
g default
v -0.057521 -0.198381 0.080232
v 0.081330 -0.198381 0.081330
v -0.081330 -0.198381 -0.081330
v 0.081330 -0.198381 -0.081330
v 0.000000 -0.198381 0.114282
v -0.119407 -0.198381 0.017559
v 0.008247 -0.198381 -0.114311
v 0.092585 -0.198381 0.000000
v -0.056995 -0.577736 -0.056995
v 0.014411 -0.577736 -0.093965
v 0.056995 -0.577736 -0.056995
v 0.073298 -0.577736 0.000000
v 0.056995 -0.577736 0.056995
v 0.017142 -0.577736 0.086459
v -0.048292 -0.577736 0.056594
v -0.071616 -0.577736 0.009045
v -0.104723 0.175880 0.104723
v 0.026147 0.175880 0.161536
v -0.086826 0.175880 -0.113804
v 0.000000 0.175880 -0.147154
v -0.152278 0.175880 0.017559
v 0.100739 0.175880 -0.134709
v 0.140834 0.175880 0.000000
v 0.104723 0.175880 0.104723
v -0.039765 -0.996093 -0.039765
v 0.015716 -0.996093 -0.052007
v 0.039765 -0.996093 -0.039765
v 0.055877 -0.996093 0.000000
v 0.039765 -0.996093 0.039765
v 0.000000 -0.996093 0.055877
v -0.039765 -0.996093 0.039765
v -0.055877 -0.996093 0.000000
v -0.011148 -1.360335 -0.011148
v 0.000000 -1.360335 -0.015666
v 0.011148 -1.360335 -0.011148
v 0.015666 -1.360335 0.000000
v 0.011148 -1.360335 0.011148
v 0.000000 -1.360335 0.015666
v -0.011148 -1.360335 0.011148
v -0.015666 -1.360335 0.000000
v 0.000000 -1.375337 0.000000
vt 0.544744 0.016320
vt 0.544698 0.006780
vt 0.551934 0.016320
vt 0.392412 0.755222
vt 0.332427 0.755222
vt 0.708165 0.513986
vt 0.435710 0.513986
vt 0.715345 0.755222
vt 0.671882 0.513986
vt 0.662868 0.755222
vt 0.633369 0.513986
vt 0.610927 0.755222
vt 0.594656 0.513986
vt 0.555569 0.755222
vt 0.562122 0.513986
vt 0.513601 0.755222
vt 0.514788 0.513986
vt 0.458464 0.755222
vt 0.479903 0.513986
vt 0.567916 0.993220
vt 0.492671 0.993220
vt 0.355020 0.993220
vt 0.297983 0.993220
vt 0.439001 0.993220
vt 0.758321 0.993220
vt 0.678779 0.993220
vt 0.618895 0.993220
vt 0.648904 0.247947
vt 0.468496 0.247947
vt 0.631815 0.247947
vt 0.604583 0.247947
vt 0.577361 0.247947
vt 0.550110 0.247947
vt 0.522884 0.247947
vt 0.495694 0.247947
vt 0.573718 0.016320
vt 0.522882 0.016320
vt 0.566387 0.016320
vt 0.559136 0.016320
vt 0.537529 0.016320
vt 0.530257 0.016320
vt 0.515377 0.016320
vt 0.432490 0.247947
vt 0.384159 0.513986
vt 0.766469 0.755222
vt 0.819684 0.993220
vn 0.000000 -0.722219 0.691665
vn 0.000000 -1.000000 -0.000000
vn 0.487441 -0.724433 0.487441
vn -0.373124 -0.079273 -0.924388
vn -0.373295 -0.079208 -0.924325
vn -0.381338 -0.071595 -0.921659
vn -0.381206 -0.071609 -0.921713
vn 0.360539 -0.094791 -0.927915
vn 0.367386 -0.093486 -0.925358
vn 0.547501 -0.064882 -0.834286
vn 0.544621 -0.064677 -0.836185
vn 0.971657 -0.090228 -0.218499
vn 0.996059 -0.088495 -0.005899
vn 0.998365 -0.057154 0.000000
vn 0.967530 -0.055639 -0.246558
vn 0.970358 -0.085504 0.226039
vn 0.967530 -0.055639 0.246558
vn 0.474666 -0.094368 0.875093
vn 0.474527 -0.094138 0.875192
vn 0.472304 -0.067115 0.878877
vn 0.473195 -0.067220 0.878389
vn -0.442402 -0.090080 0.892281
vn -0.619692 -0.095251 0.779043
vn -0.656829 -0.067280 0.751032
vn -0.432961 -0.063192 0.899195
vn -0.797496 -0.097425 0.595406
vn -0.845431 -0.066254 0.529959
vn -0.925914 -0.076571 -0.369893
vn -0.925766 -0.076451 -0.370288
vn -0.952919 -0.075051 -0.293790
vn -0.952930 -0.074998 -0.293767
vn -0.432331 -0.098076 0.896365
vn -0.638781 -0.104730 0.762228
vn -0.350603 -0.087799 -0.932400
vn -0.350603 -0.087799 -0.932400
vn -0.910152 -0.064407 -0.409238
vn -0.910152 -0.064407 -0.409238
vn 0.967633 -0.103866 -0.229997
vn 0.994407 -0.105058 -0.010834
vn 0.486323 -0.113951 0.866317
vn 0.486323 -0.113951 0.866317
vn -0.803059 -0.105099 0.586558
vn 0.251183 -0.114460 -0.961148
vn 0.251183 -0.114460 -0.961148
vn 0.964234 -0.099961 0.245481
vn -0.328191 -0.078545 -0.941340
vn -0.328486 -0.078502 -0.941241
vn 0.549267 -0.078822 -0.831921
vn 0.549283 -0.078818 -0.831911
vn 0.940296 -0.062708 -0.334530
vn 0.940362 -0.062554 -0.334375
vn 0.940362 -0.062554 0.334375
vn 0.940296 -0.062708 0.334530
vn 0.455937 -0.080636 0.886351
vn 0.457318 -0.080267 0.885673
vn -0.392746 -0.062918 0.917492
vn -0.393182 -0.062016 0.917367
vn -0.914858 -0.059350 0.399389
vn -0.914712 -0.058600 0.399836
vn -0.950262 -0.057961 -0.306010
vn -0.950359 -0.057789 -0.305742
vn -0.242919 -0.090424 -0.965823
vn -0.242920 -0.090424 -0.965823
vn 0.427463 -0.106069 -0.897789
vn 0.427463 -0.106069 -0.897789
vn 0.922000 -0.101788 -0.373570
vn 0.922000 -0.101788 -0.373570
vn 0.922000 -0.101788 0.373570
vn 0.922000 -0.101788 0.373570
vn 0.373570 -0.101788 0.922000
vn 0.373570 -0.101788 0.922000
vn -0.373570 -0.101788 0.922000
vn -0.373570 -0.101788 0.922000
vn -0.922000 -0.101788 0.373570
vn -0.922000 -0.101788 0.373570
vn -0.922000 -0.101788 -0.373570
vn -0.922000 -0.101788 -0.373570
vn -0.487441 -0.724433 0.487441
vn -0.487441 -0.724433 -0.487441
vn -0.691662 -0.722221 0.000000
vn 0.691662 -0.722221 0.000000
vn 0.487441 -0.724433 -0.487441
vn 0.000000 -0.722219 -0.691665
s 1
g pCube1
usemtl initialShadingGroup
f 38/1/1 41/2/2 37/3/3
s 2
f 3/4/4 7/5/5 10/44/6 9/7/7
s 3
f 7/45/8 4/8/9 11/9/10 10/6/11
s 4
f 4/8/12 8/10/13 12/11/14 11/9/15
f 8/10/13 2/12/16 13/13/17 12/11/14
s 5
f 2/12/18 5/14/19 14/15/20 13/13/21
s 6
f 5/14/22 1/16/23 15/17/24 14/15/25
f 1/16/23 6/18/26 16/19/27 15/17/24
s 7
f 6/18/28 3/4/29 9/7/30 16/19/31
s 6
f 1/16/23 5/14/22 18/20/32 17/21/33
s 2
f 7/5/5 3/4/4 19/22/34 20/23/35
s 7
f 3/4/29 6/18/28 21/24/36 19/22/37
s 4
f 8/10/13 4/8/12 22/25/38 23/26/39
s 5
f 5/14/19 2/12/18 24/27/40 18/20/41
s 6
f 6/18/26 1/16/23 17/21/33 21/24/42
s 3
f 4/8/9 7/45/8 20/46/43 22/25/44
s 4
f 2/12/16 8/10/13 23/26/39 24/27/45
s 2
f 9/7/7 10/44/6 26/43/46 25/29/47
s 3
f 10/6/11 11/9/10 27/30/48 26/28/49
s 4
f 11/9/15 12/11/14 28/31/50 27/30/51
f 12/11/14 13/13/17 29/32/52 28/31/53
s 5
f 13/13/21 14/15/20 30/33/54 29/32/55
s 6
f 14/15/25 15/17/24 31/34/56 30/33/57
f 15/17/24 16/19/27 32/35/58 31/34/59
s 7
f 16/19/31 9/7/30 25/29/60 32/35/61
s 2
f 25/29/47 26/43/46 34/42/62 33/37/63
s 3
f 26/28/49 27/30/48 35/38/64 34/36/65
s 4
f 27/30/51 28/31/50 36/39/66 35/38/67
f 28/31/53 29/32/52 37/3/68 36/39/69
s 5
f 29/32/55 30/33/54 38/1/70 37/3/71
s 6
f 30/33/57 31/34/56 39/40/72 38/1/73
f 31/34/59 32/35/58 40/41/74 39/40/75
s 7
f 32/35/61 25/29/60 33/37/76 40/41/77
s 1
f 39/40/78 41/2/2 38/1/1
f 33/37/79 41/2/2 40/41/80
f 36/39/81 41/2/2 35/38/82
f 40/41/80 41/2/2 39/40/78
f 35/38/82 41/2/2 34/36/83
f 33/37/79 34/42/83 41/2/2
f 37/3/3 41/2/2 36/39/81
